<svg width="248" height="77" viewBox="0 0 248 77" fill="none" xmlns="http://www.w3.org/2000/svg">
<path d="M19 66.08V58.24H21.52C22.304 58.24 22.864 58.016 23.2 57.568C23.536 57.1573 23.704 56.6347 23.704 56V24.08H32.776V56C32.776 59.472 31.88 62.0107 30.088 63.616C28.296 65.2587 25.44 66.08 21.52 66.08H19Z" fill="#5A5A5A"/>
<path d="M48.7633 56.84C45.59 56.84 42.7713 56.1307 40.3073 54.712C37.8433 53.2933 35.902 51.3333 34.4833 48.832C33.102 46.2933 32.4113 43.4 32.4113 40.152C32.4113 36.8293 33.102 33.8987 34.4833 31.36C35.902 28.8213 37.8433 26.8427 40.3073 25.424C42.7713 23.968 45.59 23.24 48.7633 23.24C51.974 23.24 54.7926 23.968 57.2193 25.424C59.6833 26.8427 61.606 28.8213 62.9873 31.36C64.406 33.8987 65.1153 36.8293 65.1153 40.152C65.1153 43.4 64.406 46.2933 62.9873 48.832C61.606 51.3333 59.6833 53.2933 57.2193 54.712C54.7926 56.1307 51.974 56.84 48.7633 56.84ZM48.7633 49C50.854 49 52.5526 48.1787 53.8593 46.536C55.2033 44.8933 55.8753 42.7653 55.8753 40.152C55.8753 37.464 55.2033 35.28 53.8593 33.6C52.5526 31.92 50.854 31.08 48.7633 31.08C46.6726 31.08 44.9553 31.92 43.6113 33.6C42.3046 35.28 41.6513 37.464 41.6513 40.152C41.6513 42.7653 42.3046 44.8933 43.6113 46.536C44.9553 48.1787 46.6726 49 48.7633 49Z" fill="#5A5A5A"/>
<path d="M78.1317 56.84C75.3317 56.84 72.8304 56.2427 70.6277 55.048C68.4624 53.8533 66.7637 52.2107 65.5317 50.12C64.2997 47.992 63.6837 45.5653 63.6837 42.84V24.08H72.7557V43.176C72.7557 44.8933 73.2597 46.2933 74.2677 47.376C75.2757 48.4587 76.5637 49 78.1317 49C79.6997 49 80.9877 48.4587 81.9957 47.376C83.0037 46.2933 83.5077 44.8933 83.5077 43.176V24.08H92.5797V42.84C92.5797 45.5653 91.9637 47.992 90.7317 50.12C89.4997 52.2107 87.801 53.8533 85.6357 55.048C83.4704 56.2427 80.969 56.84 78.1317 56.84Z" fill="#5A5A5A"/>
<path d="M93.8166 56V37.52C93.8166 32.928 95.0486 29.4 97.5126 26.936C100.014 24.472 103.579 23.24 108.209 23.24C108.694 23.24 109.459 23.2773 110.505 23.352C111.55 23.3893 114.378 23.856 115.424 24.08C115.424 24.08 112.483 25.6053 111.424 27C110.364 28.3947 109.924 31.0857 109.924 31.0857C110.558 31.1604 109.214 30.9737 109.924 31.0857C109.289 30.9737 110.281 31.08 109.497 31.08C108.339 31.08 107.257 31.248 106.249 31.584C105.241 31.92 104.419 32.5547 103.785 33.488C103.187 34.4213 102.889 35.784 102.889 37.576V56H93.8166Z" fill="#5A5A5A"/>
<path d="M110.762 56V37.24C110.762 34.3653 111.34 31.8827 112.498 29.792C113.692 27.7013 115.372 26.096 117.538 24.976C119.703 23.8187 122.26 23.24 125.21 23.24C128.159 23.24 130.716 23.8187 132.882 24.976C135.047 26.096 136.708 27.7013 137.866 29.792C139.06 31.8827 139.658 34.3653 139.658 37.24V56H130.586V37.352C130.586 35.336 130.082 33.7867 129.074 32.704C128.103 31.6213 126.815 31.08 125.21 31.08C123.642 31.08 122.354 31.6213 121.346 32.704C120.338 33.7867 119.834 35.336 119.834 37.352V56H110.762Z" fill="#5A5A5A"/>
<path d="M153.814 56.84C150.976 56.84 148.456 56.112 146.254 54.656C144.088 53.2 142.39 51.184 141.158 48.608C139.926 46.032 139.31 43.0827 139.31 39.76C139.31 36.512 139.907 33.656 141.102 31.192C142.296 28.6907 143.939 26.7493 146.03 25.368C148.12 23.9493 150.528 23.24 153.254 23.24C155.344 23.24 157.192 23.6507 158.798 24.472C160.44 25.256 161.766 26.3573 162.774 27.776L163.278 24.08H170.782V56H161.424L162.774 51.8C161.803 53.368 160.534 54.6 158.966 55.496C157.398 56.392 155.68 56.84 153.814 56.84ZM155.438 48.888C157.528 48.888 159.19 48.0667 160.422 46.424C161.654 44.7813 162.27 42.56 162.27 39.76C162.27 36.96 161.654 34.7573 160.422 33.152C159.19 31.5093 157.528 30.688 155.438 30.688C153.31 30.688 151.63 31.5093 150.398 33.152C149.166 34.7573 148.55 36.96 148.55 39.76C148.55 42.56 149.166 44.7813 150.398 46.424C151.63 48.0667 153.31 48.888 155.438 48.888Z" fill="#5A5A5A"/>
<path d="M179.2 56C176.586 56 174.477 55.216 172.872 53.648C171.304 52.0427 170.52 49.9333 170.52 47.32V14H179.592V45.752C179.592 46.4613 179.816 47.04 180.264 47.488C180.712 47.936 181.272 48.16 181.944 48.16H183.68V56H179.2Z" fill="#5A5A5A"/>
<path d="M192.616 56V24.08H201.688V56H192.616Z" fill="#5A5A5A"/>
<path d="M215.419 56C212.806 56 210.696 55.216 209.091 53.648C207.523 52.0427 206.739 49.9333 206.739 47.32V31.36H201.475V24.08H206.739V15.68H215.811V24.08H222.307V31.36H215.811V45.752C215.811 46.4613 216.035 47.04 216.483 47.488C216.931 47.936 217.491 48.16 218.163 48.16H223.259V56H215.419Z" fill="#5A5A5A"/>
<path d="M28.4238 11L29.8015 13.674L32.6665 12.7574L31.7498 15.6223L34.4238 17L31.7498 18.3777L32.6665 21.2426L29.8015 20.326L28.4238 23L27.0462 20.326L24.1812 21.2426L25.0979 18.3777L22.4238 17L25.0979 15.6223L24.1812 12.7574L27.0462 13.674L28.4238 11Z" fill="#213BFF"/>
<path d="M196.424 11L197.801 13.674L200.666 12.7574L199.75 15.6223L202.424 17L199.75 18.3777L200.666 21.2426L197.801 20.326L196.424 23L195.046 20.326L192.181 21.2426L193.098 18.3777L190.424 17L193.098 15.6223L192.181 12.7574L195.046 13.674L196.424 11Z" fill="#213BFF"/>
</svg>
